<svg xmlns="http://www.w3.org/2000/svg" width="1000" height="1000" viewBox="0 0 1000 1000">
  <defs>
    <linearGradient id="roofSheen" x1="0" y1="0" x2="0" y2="1"><stop offset="0" stop-color="#ffffff" stop-opacity="0.16"></stop><stop offset="0.55" stop-color="#ffffff" stop-opacity="0"></stop></linearGradient>
    <linearGradient id="wallShade" x1="0" y1="0" x2="1" y2="0"><stop offset="0" stop-color="#000000" stop-opacity="0"></stop><stop offset="1" stop-color="#000000" stop-opacity="0.11"></stop></linearGradient>
  </defs>
  <rect width="1000" height="1000" fill="#00352C"></rect>
  <g transform="translate(6,-40)">
    <ellipse cx="505" cy="808" rx="298" ry="22" fill="rgba(0,0,0,0.34)"></ellipse>
    <g fill="none" stroke="#1E1D1A" stroke-linecap="round" stroke-linejoin="round"><path d="M252 604 L150 636 L252 640" stroke-width="12"></path><circle cx="137" cy="636" r="13" stroke-width="8"></circle></g>
    <g fill="#33322E"><rect x="325" y="624" width="15" height="88" rx="3"></rect><rect x="668" y="624" width="15" height="88" rx="3"></rect></g>
    <circle cx="332" cy="706" r="70" fill="#33322E"></circle><circle cx="332" cy="706" r="70" fill="none" stroke="rgba(255,255,255,0.10)" stroke-width="2"></circle><circle cx="332" cy="706" r="55" fill="#F1E8D2" stroke="#1E1D1A" stroke-width="3"></circle>
    <g stroke="#1E1D1A" stroke-width="7" stroke-linecap="round"><line x1="280" y1="706" x2="384" y2="706"></line><line x1="295" y1="669" x2="369" y2="743"></line><line x1="332" y1="654" x2="332" y2="758"></line><line x1="295" y1="743" x2="369" y2="669"></line></g>
    <circle cx="332" cy="706" r="16" fill="#33322E"></circle><circle cx="332" cy="706" r="7" fill="#F1E8D2"></circle>
    <circle cx="676" cy="706" r="70" fill="#33322E"></circle><circle cx="676" cy="706" r="70" fill="none" stroke="rgba(255,255,255,0.10)" stroke-width="2"></circle><circle cx="676" cy="706" r="55" fill="#F1E8D2" stroke="#1E1D1A" stroke-width="3"></circle>
    <g stroke="#1E1D1A" stroke-width="7" stroke-linecap="round"><line x1="624" y1="706" x2="728" y2="706"></line><line x1="639" y1="669" x2="713" y2="743"></line><line x1="676" y1="654" x2="676" y2="758"></line><line x1="639" y1="743" x2="713" y2="669"></line></g>
    <circle cx="676" cy="706" r="16" fill="#33322E"></circle><circle cx="676" cy="706" r="7" fill="#F1E8D2"></circle>
    <rect x="242" y="604" width="524" height="27" rx="7" fill="#33322E"></rect><rect x="242" y="604" width="524" height="8" rx="4" fill="rgba(255,255,255,0.09)"></rect>
    <rect x="258" y="396" width="486" height="216" fill="#A2403A"></rect>
    <g stroke="#7E2F2A" stroke-width="2" opacity="0.5"><line x1="258" y1="420" x2="744" y2="420"></line><line x1="258" y1="444" x2="744" y2="444"></line><line x1="258" y1="468" x2="744" y2="468"></line><line x1="258" y1="492" x2="744" y2="492"></line><line x1="258" y1="516" x2="744" y2="516"></line><line x1="258" y1="540" x2="744" y2="540"></line><line x1="258" y1="564" x2="744" y2="564"></line><line x1="258" y1="588" x2="744" y2="588"></line></g>
    <rect x="258" y="396" width="486" height="216" fill="url(#wallShade)"></rect><rect x="272" y="408" width="458" height="14" fill="rgba(0,0,0,0.12)"></rect>
    <g fill="#F1E8D2"><rect x="258" y="396" width="486" height="12"></rect><rect x="258" y="600" width="486" height="12"></rect><rect x="258" y="396" width="16" height="216"></rect><rect x="728" y="396" width="16" height="216"></rect></g>
    <rect x="282" y="422" width="116" height="190" fill="#F1E8D2"></rect><rect x="290" y="430" width="100" height="174" fill="#B7823F"></rect>
    <g stroke="#8A5E29" stroke-width="2" opacity="0.6"><line x1="316" y1="434" x2="316" y2="600"></line><line x1="340" y1="434" x2="340" y2="600"></line><line x1="364" y1="434" x2="364" y2="600"></line></g>
    <g fill="#8A5E29"><rect x="294" y="470" width="92" height="9"></rect><rect x="294" y="556" width="92" height="9"></rect></g>
    <path d="M298 556 L382 479" fill="none" stroke="#8A5E29" stroke-width="11" stroke-linecap="round"></path>
    <g fill="#1E1D1A"><rect x="285" y="452" width="12" height="16" rx="2"></rect><rect x="285" y="566" width="12" height="16" rx="2"></rect><rect x="378" y="506" width="8" height="26" rx="3"></rect></g>
    <rect x="430" y="440" width="150" height="92" fill="#F1E8D2"></rect><rect x="440" y="450" width="130" height="72" fill="#3A2723"></rect>
    <g stroke="#F1E8D2" stroke-width="1.4" opacity="0.4"><line x1="453" y1="450" x2="453" y2="522"></line><line x1="466" y1="450" x2="466" y2="522"></line><line x1="479" y1="450" x2="479" y2="522"></line><line x1="492" y1="450" x2="492" y2="522"></line><line x1="505" y1="450" x2="505" y2="522"></line><line x1="518" y1="450" x2="518" y2="522"></line><line x1="531" y1="450" x2="531" y2="522"></line><line x1="544" y1="450" x2="544" y2="522"></line><line x1="557" y1="450" x2="557" y2="522"></line><line x1="440" y1="463" x2="570" y2="463"></line><line x1="440" y1="476" x2="570" y2="476"></line><line x1="440" y1="489" x2="570" y2="489"></line><line x1="440" y1="502" x2="570" y2="502"></line><line x1="440" y1="515" x2="570" y2="515"></line></g>
    <rect x="598" y="516" width="80" height="94" fill="#F1E8D2"></rect><rect x="606" y="524" width="64" height="78" fill="#3A2723"></rect>
    <g stroke="#1E1D1A" stroke-width="3"><line x1="603" y1="474" x2="603" y2="524"></line><line x1="673" y1="474" x2="673" y2="524"></line></g>
    <rect x="606" y="476" width="64" height="46" fill="#B7823F" stroke="#8A5E29" stroke-width="2"></rect><line x1="638" y1="476" x2="638" y2="458" stroke="#1E1D1A" stroke-width="2"></line><circle cx="638" cy="455" r="4" fill="none" stroke="#1E1D1A" stroke-width="2"></circle>
    <path d="M198 398 L501 250 L804 398 Z" fill="#AEB2AB"></path>
    <g stroke="#8B9089" stroke-width="2.4" opacity="0.5"><line x1="250" y1="373" x2="250" y2="398"></line><line x1="300" y1="348" x2="300" y2="398"></line><line x1="350" y1="324" x2="350" y2="398"></line><line x1="400" y1="299" x2="400" y2="398"></line><line x1="450" y1="275" x2="450" y2="398"></line><line x1="501" y1="251" x2="501" y2="398"></line><line x1="552" y1="275" x2="552" y2="398"></line><line x1="602" y1="299" x2="602" y2="398"></line><line x1="652" y1="324" x2="652" y2="398"></line><line x1="702" y1="348" x2="702" y2="398"></line><line x1="752" y1="373" x2="752" y2="398"></line></g>
    <path d="M198 398 L501 250 L804 398 Z" fill="url(#roofSheen)"></path>
    <path d="M198 398 L501 250 L501 259 L198 407 Z" fill="#F1E8D2"></path><path d="M804 398 L501 250 L501 259 L804 407 Z" fill="#F1E8D2"></path>
    <path d="M485 258 L501 246 L517 258 L501 270 Z" fill="#CDD1CA"></path>
    <rect x="744" y="470" width="120" height="134" fill="#A2403A"></rect><rect x="744" y="470" width="120" height="134" fill="url(#wallShade)"></rect>
    <g stroke="#7E2F2A" stroke-width="2" opacity="0.5"><line x1="784" y1="478" x2="784" y2="596"></line><line x1="824" y1="478" x2="824" y2="596"></line></g>
    <g fill="#F1E8D2"><rect x="852" y="470" width="12" height="134"></rect><rect x="744" y="592" width="120" height="12"></rect></g>
    <rect x="748" y="598" width="118" height="9" fill="#8A5E29"></rect>
    <path d="M740 470 L866 486 L866 499 L740 483 Z" fill="#AEB2AB"></path><path d="M740 470 L866 486 L866 490 L740 474 Z" fill="rgba(255,255,255,0.12)"></path>
    <rect x="734" y="470" width="9" height="15" fill="#1E1D1A"></rect><circle cx="857" cy="495" r="6" fill="#1E1D1A"></circle><line x1="744" y1="500" x2="862" y2="500" stroke="rgba(0,0,0,0.14)" stroke-width="3"></line>
    <path d="M606 600 L670 600 L534 760 L470 760 Z" fill="#B7823F" stroke="#8A5E29" stroke-width="3" stroke-linejoin="round"></path>
    <g stroke="#8A5E29" stroke-width="4" opacity="0.85"><line x1="579" y1="632" x2="643" y2="632"></line><line x1="552" y1="664" x2="616" y2="664"></line><line x1="524" y1="696" x2="588" y2="696"></line><line x1="497" y1="728" x2="561" y2="728"></line></g>
  </g>
</svg>